<svg width="306" height="336" viewBox="0 0 306 336" fill="none" xmlns="http://www.w3.org/2000/svg">
<path d="M29.376 297.056C23.488 297.056 18.624 296.192 14.784 294.464C11.008 292.672 7.52 289.664 4.32 285.44L9.024 281.312C11.776 285.024 14.624 287.648 17.568 289.184C20.576 290.72 24.384 291.488 28.992 291.488C35.008 291.488 39.648 290.336 42.912 288.032C46.24 285.728 47.904 282.496 47.904 278.336C47.904 275.712 47.296 273.632 46.08 272.096C44.864 270.56 42.72 269.248 39.648 268.16C36.576 267.008 32.032 265.824 26.016 264.608C19.424 263.328 14.528 261.216 11.328 258.272C8.192 255.328 6.624 251.392 6.624 246.464C6.624 240.64 8.704 236.064 12.864 232.736C17.088 229.408 22.88 227.744 30.24 227.744C35.488 227.744 40.032 228.672 43.872 230.528C47.712 232.32 50.688 234.976 52.8 238.496L48.096 242.336C46.112 239.392 43.584 237.152 40.512 235.616C37.504 234.08 34.016 233.312 30.048 233.312C24.992 233.312 20.96 234.464 17.952 236.768C15.008 239.072 13.536 242.176 13.536 246.08C13.536 249.536 14.848 252.288 17.472 254.336C20.096 256.32 24.416 257.92 30.432 259.136C36.768 260.416 41.664 261.856 45.12 263.456C48.64 265.056 51.136 267.008 52.608 269.312C54.08 271.552 54.816 274.496 54.816 278.144C54.816 284.288 52.64 288.992 48.288 292.256C43.936 295.456 37.632 297.056 29.376 297.056ZM92.8478 297.056C83.9518 297.056 77.1678 294.976 72.4958 290.816C67.8878 286.656 65.5838 280.576 65.5838 272.576V252.128C65.5838 244.256 67.8238 238.24 72.3038 234.08C76.8478 229.856 83.3758 227.744 91.8878 227.744C97.4558 227.744 102.224 228.64 106.192 230.432C110.16 232.16 113.424 234.88 115.984 238.592L111.088 242.144C108.848 239.136 106.192 236.928 103.12 235.52C100.112 234.048 96.4638 233.312 92.1758 233.312C85.7758 233.312 80.8798 234.912 77.4878 238.112C74.1598 241.312 72.4958 245.984 72.4958 252.128V272.576C72.4958 278.784 74.1918 283.488 77.5838 286.688C81.0398 289.888 86.0958 291.488 92.7518 291.488C97.1678 291.488 100.912 290.752 103.984 289.28C107.056 287.808 109.712 285.504 111.952 282.368L116.848 286.112C113.968 289.952 110.64 292.736 106.864 294.464C103.088 296.192 98.4158 297.056 92.8478 297.056ZM152.64 297.056C144.128 297.056 137.6 294.976 133.056 290.816C128.512 286.592 126.24 280.512 126.24 272.576V252.224C126.24 244.288 128.512 238.24 133.056 234.08C137.6 229.856 144.128 227.744 152.64 227.744C161.152 227.744 167.68 229.856 172.224 234.08C176.768 238.24 179.04 244.288 179.04 252.224V272.576C179.04 280.512 176.768 286.592 172.224 290.816C167.68 294.976 161.152 297.056 152.64 297.056ZM152.64 291.488C158.912 291.488 163.712 289.856 167.04 286.592C170.432 283.328 172.128 278.656 172.128 272.576V252.224C172.128 246.144 170.432 241.472 167.04 238.208C163.712 234.944 158.912 233.312 152.64 233.312C146.368 233.312 141.536 234.944 138.144 238.208C134.816 241.472 133.152 246.144 133.152 252.224V272.576C133.152 278.656 134.816 283.328 138.144 286.592C141.536 289.856 146.368 291.488 152.64 291.488ZM244.866 296H237.474L232.866 278.72C231.97 275.392 230.946 272.8 229.794 270.944C228.642 269.088 227.042 267.744 224.994 266.912C223.01 266.016 220.29 265.568 216.834 265.568H201.282V296H194.37V228.8H223.17C229.442 228.8 234.21 230.368 237.474 233.504C240.802 236.64 242.466 241.056 242.466 246.752C242.466 251.552 241.314 255.392 239.01 258.272C236.77 261.088 233.57 262.848 229.41 263.552C232.226 264.576 234.402 266.272 235.938 268.64C237.538 271.008 238.946 274.368 240.162 278.72L244.866 296ZM222.402 260C226.562 260 229.794 258.88 232.098 256.64C234.402 254.4 235.554 251.264 235.554 247.232C235.554 243.136 234.402 239.968 232.098 237.728C229.794 235.488 226.562 234.368 222.402 234.368H201.282V260H222.402ZM277.128 296C269.64 296 264.072 294.368 260.424 291.104C256.84 287.776 255.048 282.72 255.048 275.936V248.864C255.048 242.08 256.84 237.056 260.424 233.792C264.072 230.464 269.64 228.8 277.128 228.8H300.264V234.368H277.128C271.944 234.368 268.104 235.552 265.608 237.92C263.176 240.288 261.96 243.936 261.96 248.864V259.616H295.368V265.184H261.96V275.936C261.96 280.864 263.176 284.512 265.608 286.88C268.104 289.248 271.944 290.432 277.128 290.432H300.84V296H277.128Z" fill="white"/>
<path fill-rule="evenodd" clip-rule="evenodd" d="M251 98C251 152.124 207.124 196 153 196C98.8761 196 55 152.124 55 98C55 43.8761 98.8761 0 153 0C207.124 0 251 43.8761 251 98ZM234.454 90.0195H70.9609C76.9648 50.2646 111.277 19.7915 152.707 19.7915C194.137 19.7915 228.45 50.2646 234.454 90.0195ZM216.093 154.88C234.289 135.477 241.791 112.951 232.849 104.565C223.907 96.1791 201.907 105.11 183.712 124.512C165.516 143.915 158.014 166.441 166.956 174.827C175.898 183.213 197.898 174.282 216.093 154.88ZM140.432 174.09C131.609 182.601 109.486 173.981 91.0194 154.837C72.5523 135.693 64.7342 113.274 73.5572 104.763C82.3802 96.2519 104.503 104.872 122.97 124.016C141.437 143.161 149.255 165.58 140.432 174.09ZM152.681 134.072C162.554 134.072 170.557 126.068 170.557 116.195C170.557 106.323 162.554 98.3192 152.681 98.3192C142.808 98.3192 134.805 106.323 134.805 116.195C134.805 126.068 142.808 134.072 152.681 134.072Z" fill="#D9D9D9"/>
</svg>
