<svg width="1195" height="561" viewBox="0 0 1195 561" fill="none" xmlns="http://www.w3.org/2000/svg">
<path fill-rule="evenodd" clip-rule="evenodd" d="M72.7625 2.63219C69.5325 -2.11267 62.1238 -0.0492753 61.8116 5.68216L58.7229 62.3699C58.6492 63.7242 57.5295 64.7845 56.1732 64.7845V64.7845C55.6037 64.7845 55.06 64.5772 54.5639 64.2975C54.1056 64.0392 53.6007 63.8352 53.0526 63.6976L7.46877 52.2594C2.88678 51.1097 -1.1651 55.4606 0.307409 59.9493L14.9566 104.605V104.605C15.1089 105.069 15.2288 105.547 15.2288 106.036V139.785V269.785V340.785C15.2288 351.278 23.7354 359.785 34.2288 359.785H81.2288H187.229C195.513 359.785 202.229 366.5 202.229 374.785V436.785C202.229 445.069 195.513 451.785 187.229 451.785H34.2288C23.7354 451.785 15.2288 460.291 15.2288 470.785V541.785C15.2288 552.278 23.7354 560.785 34.2288 560.785H221.229H268.229C278.722 560.785 287.229 552.278 287.229 541.785V470.785V340.785V284.785V269.785C287.229 259.291 278.722 250.785 268.229 250.785H115.229C106.945 250.785 100.229 244.069 100.229 235.785V173.785C100.229 165.5 106.945 158.785 115.229 158.785H268.229C278.722 158.785 287.229 150.278 287.229 139.785V83.7845C287.229 73.2911 278.722 64.7845 268.229 64.7845H123.007C118.043 64.7845 113.401 62.3288 110.607 58.2255L72.7625 2.63219ZM1019.6 195.371C1020.24 195.531 1020.82 195.78 1021.33 196.1C1021.98 196.504 1022.7 196.827 1023.46 196.827V196.827C1025.05 196.827 1026.36 195.588 1026.44 194.004L1028.4 158.176C1028.71 152.444 1036.12 150.381 1039.35 155.126L1067.01 195.764V195.764C1067.42 196.372 1068.07 196.827 1068.8 196.827H1175.06C1185.55 196.827 1194.06 205.334 1194.06 215.827V246.803C1194.06 257.296 1185.55 265.803 1175.06 265.803H1071.84C1063.56 265.803 1056.84 272.519 1056.84 280.803V318.311C1056.84 326.595 1063.56 333.311 1071.84 333.311H1175.06C1185.55 333.311 1194.06 341.818 1194.06 352.311V363.318V394.294V499.802V541.785C1194.06 552.278 1185.55 560.785 1175.06 560.785H1150.69H1013.47C1002.98 560.785 994.47 552.278 994.47 541.785V499.802C994.47 489.309 1002.98 480.802 1013.47 480.802H1116.69C1124.97 480.802 1131.69 474.086 1131.69 465.802V428.294C1131.69 420.009 1124.97 413.294 1116.69 413.294H1037.84H1013.47C1002.98 413.294 994.47 404.787 994.47 394.294V352.311V246.803V227.602C994.47 226.178 993.871 224.829 993.428 223.476V223.476L984.424 196.031C982.952 191.542 987.003 187.191 991.586 188.341L1019.6 195.371ZM455.009 317.912C452.736 313.742 446.747 313.742 444.474 317.912L316.801 552.081C314.621 556.079 317.515 560.953 322.068 560.953H379.405C387.689 560.953 394.405 554.237 394.405 545.953V535.917C394.405 530.394 398.882 525.917 404.405 525.917H496.066C501.589 525.917 506.066 530.394 506.066 535.917V545.953C506.066 554.237 512.782 560.953 521.066 560.953H577.415C581.969 560.953 584.862 556.079 582.683 552.081L455.009 317.912ZM459.321 380.687C455.752 372.924 444.72 372.924 441.15 380.687L393 485.401C389.954 492.026 394.794 499.579 402.086 499.579H498.385C505.677 499.579 510.517 492.026 507.471 485.401L459.321 380.687ZM635.06 75.7845C635.06 69.7094 639.985 64.7845 646.06 64.7845H701.06C707.135 64.7845 712.06 69.7094 712.06 75.7845V145.508C712.06 153.77 718.741 160.477 727.002 160.508L799.407 160.786C805.482 160.809 810.388 165.753 810.365 171.828L810.1 240.801C810.077 246.876 805.133 251.782 799.058 251.759L727.118 251.483C718.811 251.451 712.06 258.176 712.06 266.483V549.785C712.06 555.86 707.135 560.785 701.06 560.785H646.06C639.985 560.785 635.06 555.86 635.06 549.785V266.072C635.06 257.81 628.379 251.104 620.118 251.072L549.06 250.8C542.985 250.776 538.079 245.833 538.102 239.758L538.367 170.784C538.39 164.709 543.334 159.803 549.409 159.827L620.002 160.098C628.309 160.13 635.06 153.404 635.06 145.098V75.7845ZM843.06 253.785C843.06 252.128 844.403 250.785 846.06 250.785H917.06C918.717 250.785 920.06 252.128 920.06 253.785V557.785C920.06 559.441 918.717 560.785 917.06 560.785H846.06C844.403 560.785 843.06 559.441 843.06 557.785V253.785ZM851.06 157.785C846.642 157.785 843.06 161.366 843.06 165.785V195.785C843.06 200.203 846.642 203.785 851.06 203.785H912.06C916.478 203.785 920.06 200.203 920.06 195.785V165.785C920.06 161.366 916.478 157.785 912.06 157.785H851.06Z" fill="#D9D9D9"/>
<path d="M219.471 133.178C217.235 140.496 197.867 141.066 176.211 134.451C154.555 127.836 138.812 116.54 141.048 109.222C143.284 101.903 162.651 101.333 184.307 107.948C205.963 114.564 221.706 125.859 219.471 133.178Z" fill="black"/>
<path d="M192 124.5C192 129.747 191.328 134 190.5 134C189.672 134 189 129.747 189 124.5C189 119.253 189.672 115 190.5 115C191.328 115 192 119.253 192 124.5Z" fill="#D9D9D9"/>
<path d="M171.893 91.82C172.938 90.2625 175.048 89.8473 176.605 90.8926L210.18 113.426C211.737 114.471 212.153 116.581 211.107 118.139C210.062 119.696 207.952 120.111 206.395 119.066L172.82 96.5325C171.263 95.4873 170.847 93.3774 171.893 91.82Z" fill="#302A2A"/>
</svg>
